<?xml version="1.0" encoding="UTF-8" standalone="no"?>
<!-- Generator: Adobe Illustrator 19.0.0, SVG Export Plug-In . SVG Version: 6.00 Build 0)  -->

<svg
   xmlns:dc="http://purl.org/dc/elements/1.1/"
   xmlns:cc="http://creativecommons.org/ns#"
   xmlns:rdf="http://www.w3.org/1999/02/22-rdf-syntax-ns#"
   xmlns:svg="http://www.w3.org/2000/svg"
   xmlns="http://www.w3.org/2000/svg"
   xmlns:sodipodi="http://sodipodi.sourceforge.net/DTD/sodipodi-0.dtd"
   xmlns:inkscape="http://www.inkscape.org/namespaces/inkscape"
   version="1.1"
   id="Layer_1"
   x="0px"
   y="0px"
   viewBox="0 0 488 488"
   style="enable-background:new 0 0 488 488;"
   xml:space="preserve"
   sodipodi:docname="cover_default.svg"
   inkscape:version="0.92.4 (5da689c313, 2019-01-14)"
   inkscape:export-filename="D:\Program Files\Xampp\htdocs\cmp-api\storage\images\cover_default.png"
   inkscape:export-xdpi="96"
   inkscape:export-ydpi="96"><metadata
   id="metadata59"><rdf:RDF><cc:Work
       rdf:about=""><dc:format>image/svg+xml</dc:format><dc:type
         rdf:resource="http://purl.org/dc/dcmitype/StillImage" /></cc:Work></rdf:RDF></metadata><defs
   id="defs57" /><sodipodi:namedview
   pagecolor="#ffffff"
   bordercolor="#666666"
   borderopacity="1"
   objecttolerance="10"
   gridtolerance="10"
   guidetolerance="10"
   inkscape:pageopacity="0"
   inkscape:pageshadow="2"
   inkscape:window-width="1366"
   inkscape:window-height="705"
   id="namedview55"
   showgrid="false"
   inkscape:zoom="0.48360656"
   inkscape:cx="208.80568"
   inkscape:cy="240.27394"
   inkscape:window-x="-8"
   inkscape:window-y="-8"
   inkscape:window-maximized="1"
   inkscape:current-layer="Layer_1" />
<rect
   style="opacity:1;fill:#bad6d8;fill-opacity:1;stroke:none;stroke-width:1.5118109;stroke-linecap:round;stroke-linejoin:round;stroke-miterlimit:4;stroke-dasharray:none;stroke-dashoffset:15.26173306;stroke-opacity:1"
   id="rect866"
   width="512"
   height="512"
   x="0"
   y="-24.000004"
   inkscape:export-xdpi="96"
   inkscape:export-ydpi="96" />









<g
   id="g879"
   transform="matrix(0.83898305,0,0,0.83898305,51.288136,27.288132)"
   style="stroke-width:1.19191921"
   inkscape:export-xdpi="96"
   inkscape:export-ydpi="96"><circle
     id="circle2"
     r="228.8"
     cy="244"
     cx="244"
     style="fill:#bfd5d8;stroke-width:1.19191921" /><path
     id="path4"
     d="m 82.4,82.4 c 89.6,-88.8 233.6,-88.8 323.2,0 88.8,89.6 88.8,233.6 0,323.2"
     style="fill:#b0ccd1;stroke-width:1.19191921"
     inkscape:connector-curvature="0" /><path
     id="path6"
     d="m 450.4,341.6 -136,-80 -53.6,53.6 80,136 C 389.6,428 428,389.6 450.4,341.6 Z"
     style="fill:#cfe6e8;stroke-width:1.19191921"
     inkscape:connector-curvature="0" /><path
     id="path8"
     d="M 315.2,261.6 288,288.8 405.6,406.4 c 4.8,-4.8 8.8,-8.8 12.8,-14.4 l 0.8,-0.8 c 4,-4.8 8,-9.6 12,-15.2 0,0 0,0 0,-0.8 7.2,-10.4 14.4,-21.6 20,-33.6 z"
     style="fill:#bad6d8;stroke-width:1.19191921"
     inkscape:connector-curvature="0" /><path
     id="path10"
     d="m 37.6,146.4 136,80 53.6,-53.6 -80,-136 C 98.4,60 60,98.4 37.6,146.4 Z"
     style="fill:#cfe6e8;stroke-width:1.19191921"
     inkscape:connector-curvature="0" /><path
     id="path12"
     d="m 200,200 27.2,-27.2 -80,-136 c -12,5.6 -23.2,12 -33.6,20 0,0 0,0 -0.8,0 -4.8,4 -10.4,7.2 -15.2,12 l -0.8,0.8 c -4.8,4 -9.6,8.8 -14.4,12.8 z"
     style="fill:#bad6d8;stroke-width:1.19191921"
     inkscape:connector-curvature="0" /><path
     id="path14"
     d="M 244,488 C 109.6,488 0,378.4 0,244 0,109.6 109.6,0 244,0 378.4,0 488,109.6 488,244 488,378.4 378.4,488 244,488 Z M 244,31.2 C 126.4,31.2 31.2,126.4 31.2,244 31.2,361.6 126.4,456.8 244,456.8 361.6,456.8 456.8,361.6 456.8,244 456.8,126.4 361.6,31.2 244,31.2 Z"
     style="fill:#9bb6bc;stroke-width:1.19191921"
     inkscape:connector-curvature="0" /><circle
     id="circle16"
     r="89.599998"
     cy="244"
     cx="244"
     style="fill:#424849;stroke-width:1.19191921" /><path
     id="path18"
     d="m 244,341.6 c -53.6,0 -97.6,-44 -97.6,-97.6 0,-53.6 44,-97.6 97.6,-97.6 53.6,0 97.6,44 97.6,97.6 0,53.6 -44,97.6 -97.6,97.6 z m 0,-179.2 c -44.8,0 -81.6,36.8 -81.6,81.6 0,44.8 36.8,81.6 81.6,81.6 44.8,0 81.6,-36.8 81.6,-81.6 0,-44.8 -36.8,-81.6 -81.6,-81.6 z"
     style="fill:#9bb6bc;stroke-width:1.19191921"
     inkscape:connector-curvature="0" /><circle
     id="circle20"
     r="30.4"
     cy="244"
     cx="244"
     style="fill:#c5dadd;stroke-width:1.19191921" /><path
     id="path22"
     d="m 222.4,222.4 c 12,-12 31.2,-12 43.2,0 12,12 12,31.2 0,43.2"
     style="fill:#b0ccd1;stroke-width:1.19191921"
     inkscape:connector-curvature="0" /></g>
<g
   id="g24"
   inkscape:export-xdpi="96"
   inkscape:export-ydpi="96">
</g>
<g
   id="g26"
   inkscape:export-xdpi="96"
   inkscape:export-ydpi="96">
</g>
<g
   id="g28"
   inkscape:export-xdpi="96"
   inkscape:export-ydpi="96">
</g>
<g
   id="g30"
   inkscape:export-xdpi="96"
   inkscape:export-ydpi="96">
</g>
<g
   id="g32"
   inkscape:export-xdpi="96"
   inkscape:export-ydpi="96">
</g>
<g
   id="g34"
   inkscape:export-xdpi="96"
   inkscape:export-ydpi="96">
</g>
<g
   id="g36"
   inkscape:export-xdpi="96"
   inkscape:export-ydpi="96">
</g>
<g
   id="g38"
   inkscape:export-xdpi="96"
   inkscape:export-ydpi="96">
</g>
<g
   id="g40"
   inkscape:export-xdpi="96"
   inkscape:export-ydpi="96">
</g>
<g
   id="g42"
   inkscape:export-xdpi="96"
   inkscape:export-ydpi="96">
</g>
<g
   id="g44"
   inkscape:export-xdpi="96"
   inkscape:export-ydpi="96">
</g>
<g
   id="g46"
   inkscape:export-xdpi="96"
   inkscape:export-ydpi="96">
</g>
<g
   id="g48"
   inkscape:export-xdpi="96"
   inkscape:export-ydpi="96">
</g>
<g
   id="g50"
   inkscape:export-xdpi="96"
   inkscape:export-ydpi="96">
</g>
<g
   id="g52"
   inkscape:export-xdpi="96"
   inkscape:export-ydpi="96">
</g>
</svg>